<svg width="51" height="50" viewBox="0 0 51 50" fill="none" xmlns="http://www.w3.org/2000/svg">
<g clip-path="url(#clip0)">
<path d="M5.66183 33.1624C-1.5906 26.043 -1.59045 14.4589 5.66183 7.33952C12.9144 0.220161 24.7152 0.220161 31.9676 7.33952C38.1204 13.3793 39.0523 22.3621 34.7656 29.3766C34.7656 29.3766 34.4577 29.8837 34.8736 30.2916C37.246 32.6203 44.3638 39.6075 44.3638 39.6075C46.2527 41.4616 46.7024 44.0543 45.0273 45.6989L44.7389 45.9817C43.0638 47.6263 40.4224 47.1851 38.5336 45.3308C38.5336 45.3308 31.4309 38.3585 29.0634 36.0345C28.6276 35.6067 28.1112 35.909 28.1112 35.909C20.9655 40.1167 11.8147 39.2022 5.66183 33.1624ZM28.5335 29.7912C33.8924 24.5307 33.8923 15.9714 28.5334 10.711C23.1744 5.45063 14.455 5.45048 9.09622 10.711C3.7373 15.9713 3.7373 24.5307 9.09622 29.7912C14.4551 35.0514 23.1744 35.0514 28.5335 29.7912Z" fill="#F9F9F9"/>
<path d="M27.3467 19.1675C27.5961 19.1675 27.8497 19.1194 28.0941 19.0181C29.0704 18.6124 29.5272 17.5067 29.114 16.5481C26.5169 10.5236 19.4111 7.69631 13.274 10.2457C12.2977 10.6513 11.8409 11.7571 12.2541 12.7156C12.6674 13.6741 13.7936 14.1222 14.7704 13.7167C18.9576 11.9774 23.8062 13.9065 25.5778 18.0168C25.8878 18.7357 26.5987 19.1675 27.3467 19.1675Z" fill="#F9F9F9"/>
</g>
<defs>
<clipPath id="clip0">
<rect width="50.9356" height="50" fill="white" transform="matrix(-1 0 0 1 50.9999 0)"/>
</clipPath>
</defs>
</svg>
